<svg width="1200" height="900" viewBox="0 0 1200 900" fill="none" xmlns="http://www.w3.org/2000/svg" role="img" aria-labelledby="title desc">
  <title id="title">内容自动化工作流看板</title>
  <desc id="desc">展示素材、选题、草稿、发布和复盘的内容工作流示意图。</desc>
  <rect width="1200" height="900" fill="#FFFDF8"/>
  <path d="M0 120H1200M0 240H1200M0 360H1200M0 480H1200M0 600H1200M0 720H1200M0 840H1200M120 0V900M240 0V900M360 0V900M480 0V900M600 0V900M720 0V900M840 0V900M960 0V900M1080 0V900" stroke="#E2E6DB" stroke-width="2"/>
  <rect x="70" y="66" width="1060" height="108" rx="14" fill="#181A16"/>
  <text x="112" y="130" fill="#FFFDF8" font-family="Songti SC, STSong, serif" font-size="46" font-weight="700">内容系统工作台</text>
  <text x="784" y="130" fill="#F2C84B" font-family="Hiragino Sans GB, PingFang SC, sans-serif" font-size="24" font-weight="700">素材 → 选题 → 草稿 → 发布 → 复盘</text>
  <rect x="78" y="228" width="210" height="470" rx="12" fill="#D9EEE6" stroke="#181A16" stroke-width="4"/>
  <text x="111" y="286" fill="#181A16" font-family="Songti SC, STSong, serif" font-size="36" font-weight="700">输入箱</text>
  <rect x="112" y="330" width="142" height="52" rx="8" fill="#FFFDF8" stroke="#98A390" stroke-width="3"/>
  <text x="135" y="364" fill="#181A16" font-family="Hiragino Sans GB, PingFang SC, sans-serif" font-size="22" font-weight="700">用户原话</text>
  <rect x="112" y="404" width="142" height="52" rx="8" fill="#FFFDF8" stroke="#98A390" stroke-width="3"/>
  <text x="135" y="438" fill="#181A16" font-family="Hiragino Sans GB, PingFang SC, sans-serif" font-size="22" font-weight="700">爆款链接</text>
  <rect x="112" y="478" width="142" height="52" rx="8" fill="#FFFDF8" stroke="#98A390" stroke-width="3"/>
  <text x="135" y="512" fill="#181A16" font-family="Hiragino Sans GB, PingFang SC, sans-serif" font-size="22" font-weight="700">交付记录</text>
  <path d="M288 462H360" stroke="#181A16" stroke-width="6" stroke-linecap="round"/>
  <path d="M344 443L363 462L344 481" stroke="#181A16" stroke-width="6" stroke-linecap="round" stroke-linejoin="round"/>
  <rect x="384" y="218" width="330" height="158" rx="12" fill="#FFFDF8" stroke="#181A16" stroke-width="4"/>
  <text x="424" y="276" fill="#181A16" font-family="Songti SC, STSong, serif" font-size="34" font-weight="700">整理素材</text>
  <text x="424" y="324" fill="#5D6458" font-family="Hiragino Sans GB, PingFang SC, sans-serif" font-size="23">分类、摘要、可引用观点</text>
  <rect x="384" y="420" width="330" height="158" rx="12" fill="#FFFDF8" stroke="#181A16" stroke-width="4"/>
  <text x="424" y="478" fill="#181A16" font-family="Songti SC, STSong, serif" font-size="34" font-weight="700">生成选题</text>
  <text x="424" y="526" fill="#5D6458" font-family="Hiragino Sans GB, PingFang SC, sans-serif" font-size="23">痛点、场景、标题角度</text>
  <rect x="384" y="622" width="330" height="158" rx="12" fill="#FFFDF8" stroke="#181A16" stroke-width="4"/>
  <text x="424" y="680" fill="#181A16" font-family="Songti SC, STSong, serif" font-size="34" font-weight="700">写作偏好</text>
  <text x="424" y="728" fill="#5D6458" font-family="Hiragino Sans GB, PingFang SC, sans-serif" font-size="23">从改稿里学习表达习惯</text>
  <path d="M714 500H786" stroke="#181A16" stroke-width="6" stroke-linecap="round"/>
  <path d="M770 481L789 500L770 519" stroke="#181A16" stroke-width="6" stroke-linecap="round" stroke-linejoin="round"/>
  <rect x="812" y="248" width="294" height="382" rx="12" fill="#DF4B2F" stroke="#181A16" stroke-width="4"/>
  <text x="852" y="314" fill="#FFFDF8" font-family="Songti SC, STSong, serif" font-size="40" font-weight="700">文章输出</text>
  <rect x="852" y="356" width="214" height="42" rx="7" fill="#FFFDF8"/>
  <rect x="852" y="423" width="178" height="24" rx="5" fill="#FFFDF8" opacity="0.78"/>
  <rect x="852" y="469" width="214" height="24" rx="5" fill="#FFFDF8" opacity="0.78"/>
  <rect x="852" y="515" width="152" height="24" rx="5" fill="#FFFDF8" opacity="0.78"/>
  <circle cx="1040" cy="572" r="38" fill="#F2C84B" stroke="#181A16" stroke-width="4"/>
  <path d="M1022 572L1035 585L1060 553" stroke="#181A16" stroke-width="7" stroke-linecap="round" stroke-linejoin="round"/>
  <rect x="116" y="738" width="138" height="54" rx="27" fill="#F2C84B" stroke="#181A16" stroke-width="4"/>
  <text x="150" y="774" fill="#181A16" font-family="Hiragino Sans GB, PingFang SC, sans-serif" font-size="23" font-weight="700">复盘</text>
  <path d="M184 738C184 690 226 672 262 672" stroke="#181A16" stroke-width="5" stroke-linecap="round" stroke-dasharray="10 14"/>
</svg>
