<svg width="1200" height="900" viewBox="0 0 1200 900" fill="none" xmlns="http://www.w3.org/2000/svg" role="img" aria-labelledby="title desc">
  <title id="title">关凯迪个人能力地图</title>
  <desc id="desc">展示关凯迪围绕个人 IP、AI 写作、内容系统和工具探索的能力地图。</desc>
  <rect width="1200" height="900" fill="#FFFDF8"/>
  <path d="M0 100H1200M0 200H1200M0 300H1200M0 400H1200M0 500H1200M0 600H1200M0 700H1200M0 800H1200M100 0V900M200 0V900M300 0V900M400 0V900M500 0V900M600 0V900M700 0V900M800 0V900M900 0V900M1000 0V900M1100 0V900" stroke="#E2E6DB" stroke-width="2"/>
  <rect x="72" y="70" width="1056" height="108" rx="14" fill="#181A16"/>
  <text x="112" y="137" fill="#FFFDF8" font-family="Songti SC, STSong, serif" font-size="48" font-weight="700">关凯迪</text>
  <text x="780" y="137" fill="#F2C84B" font-family="Hiragino Sans GB, PingFang SC, sans-serif" font-size="24" font-weight="700">让能力被持续看见</text>
  <circle cx="600" cy="448" r="138" fill="#F2C84B" stroke="#181A16" stroke-width="5"/>
  <text x="540" y="418" fill="#181A16" font-family="Songti SC, STSong, serif" font-size="42" font-weight="700">内容</text>
  <text x="517" y="474" fill="#181A16" font-family="Songti SC, STSong, serif" font-size="42" font-weight="700">系统</text>
  <text x="511" y="526" fill="#5D6458" font-family="Hiragino Sans GB, PingFang SC, sans-serif" font-size="22">能力 × 表达 × 流程</text>
  <rect x="96" y="260" width="290" height="150" rx="12" fill="#D9EEE6" stroke="#181A16" stroke-width="4"/>
  <text x="132" y="318" fill="#181A16" font-family="Songti SC, STSong, serif" font-size="34" font-weight="700">个人 IP 内容</text>
  <text x="132" y="365" fill="#5D6458" font-family="Hiragino Sans GB, PingFang SC, sans-serif" font-size="22">让交付、判断和方法</text>
  <text x="132" y="397" fill="#5D6458" font-family="Hiragino Sans GB, PingFang SC, sans-serif" font-size="22">被客户持续看见</text>
  <rect x="812" y="260" width="292" height="150" rx="12" fill="#FFFDF8" stroke="#181A16" stroke-width="4"/>
  <text x="848" y="318" fill="#181A16" font-family="Songti SC, STSong, serif" font-size="34" font-weight="700">AI 写作流程</text>
  <text x="848" y="365" fill="#5D6458" font-family="Hiragino Sans GB, PingFang SC, sans-serif" font-size="22">先读产品、用户、语气</text>
  <text x="848" y="397" fill="#5D6458" font-family="Hiragino Sans GB, PingFang SC, sans-serif" font-size="22">再写出不像模板的草稿</text>
  <rect x="96" y="560" width="290" height="150" rx="12" fill="#FFFDF8" stroke="#181A16" stroke-width="4"/>
  <text x="132" y="618" fill="#181A16" font-family="Songti SC, STSong, serif" font-size="34" font-weight="700">交付边界</text>
  <text x="132" y="665" fill="#5D6458" font-family="Hiragino Sans GB, PingFang SC, sans-serif" font-size="22">不承诺爆款、稳赚</text>
  <text x="132" y="697" fill="#5D6458" font-family="Hiragino Sans GB, PingFang SC, sans-serif" font-size="22">把个案和事实分清楚</text>
  <rect x="812" y="560" width="292" height="150" rx="12" fill="#DF4B2F" stroke="#181A16" stroke-width="4"/>
  <text x="848" y="618" fill="#FFFDF8" font-family="Songti SC, STSong, serif" font-size="34" font-weight="700">工具探索</text>
  <text x="848" y="665" fill="#FFFDF8" font-family="Hiragino Sans GB, PingFang SC, sans-serif" font-size="22">语音输入后的</text>
  <text x="848" y="697" fill="#FFFDF8" font-family="Hiragino Sans GB, PingFang SC, sans-serif" font-size="22">内容整理器</text>
  <path d="M386 335C438 335 466 365 494 391" stroke="#181A16" stroke-width="5" stroke-linecap="round"/>
  <path d="M812 335C760 335 734 365 706 391" stroke="#181A16" stroke-width="5" stroke-linecap="round"/>
  <path d="M386 635C438 635 466 553 494 523" stroke="#181A16" stroke-width="5" stroke-linecap="round"/>
  <path d="M812 635C760 635 734 553 706 523" stroke="#181A16" stroke-width="5" stroke-linecap="round"/>
  <circle cx="462" cy="374" r="9" fill="#181A16"/>
  <circle cx="738" cy="374" r="9" fill="#181A16"/>
  <circle cx="462" cy="568" r="9" fill="#181A16"/>
  <circle cx="738" cy="568" r="9" fill="#181A16"/>
  <rect x="356" y="762" width="488" height="58" rx="29" fill="#181A16"/>
  <text x="414" y="799" fill="#FFFDF8" font-family="Hiragino Sans GB, PingFang SC, sans-serif" font-size="24" font-weight="700">先手动跑通，再逐步自动化</text>
</svg>
